<svg width="320" height="200" viewBox="0 0 320 200" fill="none" xmlns="http://www.w3.org/2000/svg">
  <rect width="320" height="200" rx="16" fill="#FFF1C2"/>
  <rect x="20" y="75" width="280" height="100" rx="16" fill="#FFFBEB"/>
  <line x1="261" y1="75" x2="261" y2="175" stroke="black" stroke-opacity="0.12" stroke-width="2"/>
  <line x1="221" y1="75" x2="221" y2="175" stroke="black" stroke-opacity="0.12" stroke-width="2"/>
  <line x1="181" y1="75" x2="181" y2="175" stroke="black" stroke-opacity="0.12" stroke-width="2"/>
  <line x1="141" y1="75" x2="141" y2="175" stroke="black" stroke-opacity="0.12" stroke-width="2"/>
  <line x1="101" y1="75" x2="101" y2="175" stroke="black" stroke-opacity="0.12" stroke-width="2"/>
  <line x1="61" y1="75" x2="61" y2="175" stroke="black" stroke-opacity="0.12" stroke-width="2"/>
  <line x1="20" y1="154" x2="300" y2="154" stroke="black" stroke-opacity="0.12" stroke-width="2"/>
  <line x1="20" y1="134" x2="300" y2="134" stroke="black" stroke-opacity="0.12" stroke-width="2"/>
  <line x1="20" y1="114" x2="300" y2="114" stroke="black" stroke-opacity="0.12" stroke-width="2"/>
  <line x1="20" y1="94" x2="300" y2="94" stroke="black" stroke-opacity="0.12" stroke-width="2"/>
  <path d="M0 16C0 7.16344 7.16344 0 16 0H304C312.837 0 320 7.16344 320 16V50H0V16Z" fill="#E8B931"/>
</svg>
